<svg width="22" height="22" viewBox="0 0 22 22" fill="none" xmlns="http://www.w3.org/2000/svg">
    <path d="M9.5782 3.04924C10.4966 2.9877 11.4243 2.97693 12.3412 3.05693C14.7274 3.52769 16.715 5.49229 17.2966 7.84303C17.515 8.64148 17.5196 9.4784 17.4427 10.2968C18.4166 10.1769 19.4304 10.3538 20.2504 10.9107C21.3981 11.6538 22.0981 13.0353 21.9888 14.403C21.9627 16.3799 20.1519 18.1675 18.1612 18.0875C14.1074 18.0845 10.0536 18.086 5.99977 18.086C5.19825 18.0845 4.37056 18.1337 3.60596 17.8506C2.11213 17.3568 0.870599 16.1676 0.30599 14.6999C-0.0893901 13.7737 -0.0109276 12.7368 0.0506101 11.7553C0.413683 9.48609 2.43828 7.67995 4.69825 7.41073C5.41517 5.24152 7.31976 3.47385 9.5782 3.04924ZM6.18439 7.48611C7.66591 7.74457 8.92744 8.61841 10.2597 9.25994C10.0428 9.66916 9.82589 10.0784 9.60127 10.483C8.84898 10.0461 8.05206 9.69532 7.28438 9.28763C6.39054 8.82456 5.33824 8.62764 4.35364 8.8861C2.5352 9.30917 1.17521 11.1384 1.32444 13.0045C1.41521 15.0199 3.22904 16.7552 5.24594 16.7552C9.50281 16.7599 13.7582 16.7537 18.0135 16.7583C19.0627 16.786 20.0673 16.1029 20.4581 15.1353C20.8535 14.1707 20.575 12.9876 19.7904 12.303C19.0735 11.6076 17.9304 11.4707 17.032 11.8599C16.7473 12.5307 16.3858 13.1722 15.9058 13.7214C15.5627 13.4184 15.2151 13.1184 14.8658 12.8214C15.5089 12.0507 15.9504 11.1061 16.075 10.1061C16.4104 7.78919 14.952 5.38921 12.7505 4.6046C10.2659 3.59846 7.08745 4.94306 6.18439 7.48611Z" fill="#242748"/>
</svg>
